<svg width="157" height="33" viewBox="0 0 157 33" fill="none" xmlns="http://www.w3.org/2000/svg">
<g id="Group 546">
<g id="Group">
<g id="Group_2">
<path id="Vector" fill-rule="evenodd" clip-rule="evenodd" d="M125.384 22.2089C125.613 21.5406 125.699 20.6979 125.699 19.303C125.699 17.9078 125.613 17.0942 125.384 16.3968C124.926 15.0019 123.866 14.3042 122.349 14.3042C120.832 14.3042 119.801 15.0307 119.343 16.3968C119.114 17.1524 119.028 18.0534 119.028 19.303C119.028 20.5817 119.114 21.4824 119.343 22.2089C119.801 23.575 120.832 24.3304 122.349 24.3304C123.866 24.3304 124.926 23.6038 125.384 22.2089ZM125.985 26.2776C125.814 26.2776 125.699 26.1614 125.699 25.987V24.6504H125.67C125.012 25.7543 123.838 26.5971 121.776 26.5971C119.4 26.5971 117.739 25.4637 117.052 23.2549C116.68 22.151 116.566 21.0467 116.566 19.303C116.566 17.5884 116.68 16.4838 117.052 15.3796C117.739 13.1708 119.4 12.0374 121.776 12.0374C123.838 12.0374 125.012 12.8513 125.67 13.9553H125.699V6.80652C125.699 6.6321 125.814 6.51562 125.985 6.51562H127.817C127.989 6.51562 128.104 6.6321 128.104 6.80652V25.987C128.104 26.1614 127.989 26.2776 127.817 26.2776H125.985ZM139.901 21.7732V20.2327C139.901 20.1165 139.843 20.0583 139.729 20.0583H136.98C134.604 20.0583 133.573 20.756 133.573 22.325C133.573 23.7493 134.604 24.505 136.436 24.505C138.584 24.505 139.901 23.4878 139.901 21.7732ZM140.244 26.2775C140.072 26.2775 139.958 26.1614 139.958 25.9869V24.7665H139.929C139.299 25.8125 137.954 26.5973 135.864 26.5973C133.258 26.5973 131.254 25.2315 131.254 22.4124C131.254 19.4773 133.258 18.1113 136.608 18.1113H139.729C139.843 18.1113 139.901 18.0533 139.901 17.9369V16.9197C139.901 15.0018 139.156 14.1879 136.608 14.1879C135.062 14.1879 134.089 14.5947 133.287 15.1762C133.144 15.2924 132.972 15.2924 132.886 15.1468L132.113 13.8102C132.027 13.6358 132.056 13.5196 132.17 13.4034C133.201 12.5898 134.804 12.0376 136.837 12.0376C140.731 12.0376 142.22 13.3452 142.22 16.7747V25.9869C142.22 26.1614 142.105 26.2775 141.933 26.2775H140.244ZM145.943 31.5086C145.771 31.5086 145.656 31.3924 145.656 31.218V29.5325C145.656 29.3581 145.771 29.2419 145.943 29.2419H146.458C147.575 29.2419 148.176 28.748 148.777 27.1493L149.235 25.8709L144.196 12.6476C144.139 12.4734 144.225 12.357 144.425 12.357H146.429C146.601 12.357 146.716 12.4443 146.773 12.6476L150.38 22.7032H150.438L153.902 12.6476C153.959 12.4443 154.074 12.357 154.246 12.357H156.193C156.364 12.357 156.479 12.4734 156.421 12.6476L151.01 27.3531C149.808 30.6367 148.749 31.5086 146.687 31.5086H145.943Z" fill="#313131"/>
</g>
<path id="Vector_2" fill-rule="evenodd" clip-rule="evenodd" d="M76.4234 12.4152C76.4234 10.2647 75.0205 8.92776 72.6155 8.92776H68.2636C68.1491 8.92776 68.0918 8.98599 68.0918 9.10219V15.7283C68.0918 15.8444 68.1491 15.9024 68.2636 15.9024H72.6155C75.0205 15.9024 76.4234 14.5658 76.4234 12.4152ZM65.8299 26.2774C65.6583 26.2774 65.5436 26.1612 65.5436 25.9868V6.80633C65.5436 6.63218 65.6583 6.51571 65.8299 6.51571H72.7587C76.5092 6.51571 78.9429 8.84068 78.9429 12.4152C78.9429 15.9898 76.5092 18.3145 72.7587 18.3145H68.2636C68.1491 18.3145 68.0918 18.3727 68.0918 18.4889V25.9868C68.0918 26.1612 67.9773 26.2774 67.8054 26.2774H65.8299ZM84.8706 26.4229C82.4653 26.4229 81.5206 25.2605 81.5206 22.7611V6.80652C81.5206 6.6321 81.6351 6.51562 81.8069 6.51562H83.6393C83.8112 6.51562 83.9256 6.6321 83.9256 6.80652V22.6157C83.9256 23.7782 84.3551 24.1559 85.2999 24.1559H85.8441C86.0156 24.1559 86.1301 24.2721 86.1301 24.4465V26.132C86.1301 26.3065 86.0156 26.4229 85.8441 26.4229H84.8706ZM96.6099 21.7731V20.2326C96.6099 20.1165 96.5525 20.0582 96.4381 20.0582H93.6896C91.313 20.0582 90.2822 20.7559 90.2822 22.325C90.2822 23.7492 91.313 24.5049 93.1454 24.5049C95.2928 24.5049 96.6099 23.4877 96.6099 21.7731ZM96.9533 26.2775C96.7815 26.2775 96.667 26.1613 96.667 25.9868V24.7664H96.6383C96.0086 25.8124 94.6628 26.5972 92.5728 26.5972C89.9675 26.5972 87.9632 25.2314 87.9632 22.4123C87.9632 19.4772 89.9675 18.1112 93.3172 18.1112H96.4381C96.5525 18.1112 96.6099 18.0533 96.6099 17.9368V16.9196C96.6099 15.0017 95.8651 14.1878 93.3172 14.1878C91.7712 14.1878 90.7977 14.5946 89.9959 15.1762C89.853 15.2923 89.6812 15.2923 89.5951 15.1468L88.8219 13.8101C88.7364 13.6357 88.7648 13.5195 88.8793 13.4033C89.9101 12.5897 91.5135 12.0376 93.5462 12.0376C97.4402 12.0376 98.9289 13.3451 98.9289 16.7746V25.9868C98.9289 26.1613 98.8144 26.2775 98.6425 26.2775H96.9533ZM111.556 26.2775C111.384 26.2775 111.27 26.1613 111.27 25.9869V17.8495C111.27 15.6119 110.267 14.3041 108.206 14.3041C106.345 14.3041 105.057 15.6413 105.057 17.7045V25.9869C105.057 26.1613 104.942 26.2775 104.77 26.2775H102.938C102.766 26.2775 102.652 26.1613 102.652 25.9869V12.6477C102.652 12.4735 102.766 12.3571 102.938 12.3571H104.77C104.942 12.3571 105.057 12.4735 105.057 12.6477V13.9264H105.085C105.744 12.8512 107.061 12.0373 108.922 12.0373C111.9 12.0373 113.675 14.1008 113.675 17.2685V25.9869C113.675 26.1613 113.56 26.2775 113.388 26.2775H111.556Z" fill="#313131"/>
<path id="Vector_3" fill-rule="evenodd" clip-rule="evenodd" d="M41.6506 13.4402C41.0463 10.6543 39.5584 8.01988 37.1654 5.98192C31.3183 1.00169 23.0257 1.9867 18.349 7.64412L18.3487 7.6444L18.3484 7.64468L1.36164 28.1931C0.259529 29.5264 0.345315 31.0095 1.56818 32.0511C2.79105 33.0927 4.24504 32.9207 5.34715 31.5877L15.5183 19.2837L22.2875 11.0955L22.2889 11.0966C22.3042 11.0775 22.3186 11.0578 22.3342 11.039C22.4268 10.9269 22.5214 10.8188 22.6173 10.7131C22.6328 10.6962 22.6492 10.6798 22.6648 10.6627C25.7689 7.3083 30.6522 7.24757 33.8605 9.97991C33.8605 9.97991 33.8796 9.99211 33.9156 10.0124C37.684 13.2677 37.4837 18.4809 34.8347 21.6852C34.7424 21.797 34.52 22.0443 34.5041 22.0612C31.4002 25.4156 26.5907 25.4877 23.2535 22.7115C22.5569 22.1098 21.996 21.4412 21.5613 20.7304C21.04 19.8782 19.8516 19.7923 19.2175 20.5615L17.039 23.2035C17.7919 24.4996 18.7787 25.699 20.0035 26.7422C25.8506 31.7222 34.1432 30.7372 38.8199 25.08C38.8199 25.08 42.5579 20.6802 41.6506 13.4402Z" fill="#313131"/>
<path id="Vector_4" fill-rule="evenodd" clip-rule="evenodd" d="M41.6592 13.442L51.8306 1.13823C52.9328 -0.195079 54.3865 -0.366734 55.6093 0.674568C56.8322 1.71615 56.9183 3.19948 55.8162 4.53252L38.8201 25.0796C34.1434 30.737 25.8505 31.7217 20.0034 26.7418C18.7789 25.6988 17.792 24.4992 17.0388 23.2033L19.2174 20.5611C19.8517 19.7921 21.0402 19.8781 21.5615 20.7302C21.9961 21.4407 22.5655 22.1115 23.2622 22.7133C26.5737 25.4786 31.3949 25.4179 34.4991 22.0636C34.5032 22.0591 34.7616 21.7693 34.8296 21.6873L41.6592 13.442Z" fill="#313131"/>
</g>
</g>
</svg>
